<mxfile host="Electron" modified="2024-07-15T09:28:49.671Z" agent="Mozilla/5.0 (Macintosh; Intel Mac OS X 10_15_7) AppleWebKit/537.36 (KHTML, like Gecko) draw.io/22.0.3 Chrome/114.0.5735.289 Electron/25.8.4 Safari/537.36" etag="vLee7FhktVvHPLn4lLDi" version="22.0.3" type="device">
  <diagram name="PÃ¡gina-1" id="ktlymwnoogAnn24ntH1R">
    <mxGraphModel dx="1405" dy="2024" grid="1" gridSize="10" guides="1" tooltips="1" connect="1" arrows="1" fold="1" page="1" pageScale="1" pageWidth="827" pageHeight="1169" math="0" shadow="0">
      <root>
        <mxCell id="0" />
        <mxCell id="1" parent="0" />
        <mxCell id="QvjmknEQWRXx9Tbn0goD-20" style="edgeStyle=orthogonalEdgeStyle;rounded=0;orthogonalLoop=1;jettySize=auto;html=1;entryX=0.5;entryY=0;entryDx=0;entryDy=0;entryPerimeter=0;" edge="1" parent="1" target="QvjmknEQWRXx9Tbn0goD-16">
          <mxGeometry relative="1" as="geometry">
            <mxPoint x="780.0666666666671" y="371" as="sourcePoint" />
            <Array as="points">
              <mxPoint x="780" y="-90" />
              <mxPoint x="380" y="-90" />
            </Array>
          </mxGeometry>
        </mxCell>
        <mxCell id="QvjmknEQWRXx9Tbn0goD-36" style="edgeStyle=orthogonalEdgeStyle;rounded=0;orthogonalLoop=1;jettySize=auto;html=1;" edge="1" parent="1" source="QvjmknEQWRXx9Tbn0goD-21" target="QvjmknEQWRXx9Tbn0goD-32">
          <mxGeometry relative="1" as="geometry">
            <mxPoint x="570" y="150" as="targetPoint" />
          </mxGeometry>
        </mxCell>
        <mxCell id="QvjmknEQWRXx9Tbn0goD-21" value="payment-service" style="rounded=0;whiteSpace=wrap;html=1;" vertex="1" parent="1">
          <mxGeometry x="650" y="120" width="120" height="60" as="geometry" />
        </mxCell>
        <mxCell id="QvjmknEQWRXx9Tbn0goD-22" value="DB" style="shape=cylinder3;whiteSpace=wrap;html=1;boundedLbl=1;backgroundOutline=1;size=15;" vertex="1" parent="1">
          <mxGeometry x="850" y="110" width="60" height="80" as="geometry" />
        </mxCell>
        <mxCell id="QvjmknEQWRXx9Tbn0goD-27" style="edgeStyle=orthogonalEdgeStyle;rounded=0;orthogonalLoop=1;jettySize=auto;html=1;entryX=0;entryY=0.5;entryDx=0;entryDy=0;entryPerimeter=0;" edge="1" parent="1" source="QvjmknEQWRXx9Tbn0goD-21" target="QvjmknEQWRXx9Tbn0goD-22">
          <mxGeometry relative="1" as="geometry" />
        </mxCell>
        <mxCell id="QvjmknEQWRXx9Tbn0goD-34" style="edgeStyle=orthogonalEdgeStyle;rounded=0;orthogonalLoop=1;jettySize=auto;html=1;" edge="1" parent="1" source="QvjmknEQWRXx9Tbn0goD-32" target="QvjmknEQWRXx9Tbn0goD-33">
          <mxGeometry relative="1" as="geometry" />
        </mxCell>
        <mxCell id="QvjmknEQWRXx9Tbn0goD-46" style="edgeStyle=orthogonalEdgeStyle;rounded=0;orthogonalLoop=1;jettySize=auto;html=1;" edge="1" parent="1" source="QvjmknEQWRXx9Tbn0goD-32" target="QvjmknEQWRXx9Tbn0goD-42">
          <mxGeometry relative="1" as="geometry">
            <Array as="points">
              <mxPoint x="380" y="220" />
              <mxPoint x="490" y="220" />
            </Array>
          </mxGeometry>
        </mxCell>
        <mxCell id="QvjmknEQWRXx9Tbn0goD-53" style="edgeStyle=orthogonalEdgeStyle;rounded=0;orthogonalLoop=1;jettySize=auto;html=1;entryX=0;entryY=0.5;entryDx=0;entryDy=0;" edge="1" parent="1" source="QvjmknEQWRXx9Tbn0goD-32" target="QvjmknEQWRXx9Tbn0goD-21">
          <mxGeometry relative="1" as="geometry" />
        </mxCell>
        <mxCell id="QvjmknEQWRXx9Tbn0goD-32" value="booking-api" style="rounded=0;whiteSpace=wrap;html=1;" vertex="1" parent="1">
          <mxGeometry x="280" y="120" width="120" height="60" as="geometry" />
        </mxCell>
        <mxCell id="QvjmknEQWRXx9Tbn0goD-33" value="DB" style="shape=cylinder3;whiteSpace=wrap;html=1;boundedLbl=1;backgroundOutline=1;size=15;" vertex="1" parent="1">
          <mxGeometry x="310" y="280" width="60" height="80" as="geometry" />
        </mxCell>
        <mxCell id="QvjmknEQWRXx9Tbn0goD-55" style="edgeStyle=orthogonalEdgeStyle;rounded=0;orthogonalLoop=1;jettySize=auto;html=1;" edge="1" parent="1" source="QvjmknEQWRXx9Tbn0goD-37" target="QvjmknEQWRXx9Tbn0goD-54">
          <mxGeometry relative="1" as="geometry" />
        </mxCell>
        <mxCell id="QvjmknEQWRXx9Tbn0goD-37" value="" style="outlineConnect=0;dashed=0;verticalLabelPosition=bottom;verticalAlign=top;align=center;html=1;shape=mxgraph.aws3.mobile_client;fillColor=#D2D3D3;gradientColor=none;" vertex="1" parent="1">
          <mxGeometry x="510" y="-120" width="40.5" height="63" as="geometry" />
        </mxCell>
        <mxCell id="QvjmknEQWRXx9Tbn0goD-44" style="edgeStyle=orthogonalEdgeStyle;rounded=0;orthogonalLoop=1;jettySize=auto;html=1;" edge="1" parent="1" source="QvjmknEQWRXx9Tbn0goD-41" target="QvjmknEQWRXx9Tbn0goD-33">
          <mxGeometry relative="1" as="geometry">
            <Array as="points">
              <mxPoint x="450" y="400" />
              <mxPoint x="340" y="400" />
            </Array>
          </mxGeometry>
        </mxCell>
        <mxCell id="QvjmknEQWRXx9Tbn0goD-49" style="edgeStyle=orthogonalEdgeStyle;rounded=0;orthogonalLoop=1;jettySize=auto;html=1;" edge="1" parent="1" source="QvjmknEQWRXx9Tbn0goD-41" target="QvjmknEQWRXx9Tbn0goD-48">
          <mxGeometry relative="1" as="geometry" />
        </mxCell>
        <mxCell id="QvjmknEQWRXx9Tbn0goD-51" style="edgeStyle=orthogonalEdgeStyle;rounded=0;orthogonalLoop=1;jettySize=auto;html=1;" edge="1" parent="1" source="QvjmknEQWRXx9Tbn0goD-41" target="QvjmknEQWRXx9Tbn0goD-50">
          <mxGeometry relative="1" as="geometry" />
        </mxCell>
        <mxCell id="QvjmknEQWRXx9Tbn0goD-41" value="booking-core" style="rounded=0;whiteSpace=wrap;html=1;" vertex="1" parent="1">
          <mxGeometry x="450" y="440" width="120" height="60" as="geometry" />
        </mxCell>
        <mxCell id="QvjmknEQWRXx9Tbn0goD-47" style="edgeStyle=orthogonalEdgeStyle;rounded=0;orthogonalLoop=1;jettySize=auto;html=1;" edge="1" parent="1" source="QvjmknEQWRXx9Tbn0goD-42">
          <mxGeometry relative="1" as="geometry">
            <mxPoint x="560" y="440" as="targetPoint" />
            <Array as="points">
              <mxPoint x="560" y="320" />
            </Array>
          </mxGeometry>
        </mxCell>
        <mxCell id="QvjmknEQWRXx9Tbn0goD-69" style="edgeStyle=orthogonalEdgeStyle;rounded=0;orthogonalLoop=1;jettySize=auto;html=1;" edge="1" parent="1" source="QvjmknEQWRXx9Tbn0goD-42" target="QvjmknEQWRXx9Tbn0goD-68">
          <mxGeometry relative="1" as="geometry" />
        </mxCell>
        <mxCell id="QvjmknEQWRXx9Tbn0goD-42" value="make-reservation" style="sketch=0;outlineConnect=0;fontColor=#232F3E;gradientColor=none;strokeColor=#232F3E;fillColor=#ffffff;dashed=0;verticalLabelPosition=bottom;verticalAlign=top;align=center;html=1;fontSize=12;fontStyle=0;aspect=fixed;shape=mxgraph.aws4.resourceIcon;resIcon=mxgraph.aws4.queue;" vertex="1" parent="1">
          <mxGeometry x="460" y="280" width="60" height="60" as="geometry" />
        </mxCell>
        <mxCell id="QvjmknEQWRXx9Tbn0goD-48" value="layer-payment" style="rounded=0;whiteSpace=wrap;html=1;fillColor=#FFFF99;" vertex="1" parent="1">
          <mxGeometry x="150" y="440" width="120" height="60" as="geometry" />
        </mxCell>
        <mxCell id="QvjmknEQWRXx9Tbn0goD-62" style="edgeStyle=orthogonalEdgeStyle;rounded=0;orthogonalLoop=1;jettySize=auto;html=1;" edge="1" parent="1" source="QvjmknEQWRXx9Tbn0goD-50" target="QvjmknEQWRXx9Tbn0goD-61">
          <mxGeometry relative="1" as="geometry" />
        </mxCell>
        <mxCell id="QvjmknEQWRXx9Tbn0goD-50" value="make-payment" style="sketch=0;outlineConnect=0;fontColor=#232F3E;gradientColor=none;strokeColor=#232F3E;fillColor=#ffffff;dashed=0;verticalLabelPosition=bottom;verticalAlign=top;align=center;html=1;fontSize=12;fontStyle=0;aspect=fixed;shape=mxgraph.aws4.resourceIcon;resIcon=mxgraph.aws4.queue;" vertex="1" parent="1">
          <mxGeometry x="640" y="440" width="60" height="60" as="geometry" />
        </mxCell>
        <mxCell id="QvjmknEQWRXx9Tbn0goD-52" style="edgeStyle=orthogonalEdgeStyle;rounded=0;orthogonalLoop=1;jettySize=auto;html=1;" edge="1" parent="1" source="QvjmknEQWRXx9Tbn0goD-50">
          <mxGeometry relative="1" as="geometry">
            <mxPoint x="740" y="186" as="targetPoint" />
            <Array as="points">
              <mxPoint x="740" y="470" />
            </Array>
          </mxGeometry>
        </mxCell>
        <mxCell id="QvjmknEQWRXx9Tbn0goD-56" style="edgeStyle=orthogonalEdgeStyle;rounded=0;orthogonalLoop=1;jettySize=auto;html=1;" edge="1" parent="1" source="QvjmknEQWRXx9Tbn0goD-54" target="QvjmknEQWRXx9Tbn0goD-32">
          <mxGeometry relative="1" as="geometry" />
        </mxCell>
        <mxCell id="QvjmknEQWRXx9Tbn0goD-57" style="edgeStyle=orthogonalEdgeStyle;rounded=0;orthogonalLoop=1;jettySize=auto;html=1;entryX=0.5;entryY=0;entryDx=0;entryDy=0;" edge="1" parent="1" source="QvjmknEQWRXx9Tbn0goD-54" target="QvjmknEQWRXx9Tbn0goD-21">
          <mxGeometry relative="1" as="geometry" />
        </mxCell>
        <mxCell id="QvjmknEQWRXx9Tbn0goD-54" value="booking-bff" style="rounded=0;whiteSpace=wrap;html=1;" vertex="1" parent="1">
          <mxGeometry x="470.25" y="20" width="120" height="60" as="geometry" />
        </mxCell>
        <mxCell id="QvjmknEQWRXx9Tbn0goD-58" value="booking-status" style="sketch=0;points=[[0,0,0],[0.25,0,0],[0.5,0,0],[0.75,0,0],[1,0,0],[0,1,0],[0.25,1,0],[0.5,1,0],[0.75,1,0],[1,1,0],[0,0.25,0],[0,0.5,0],[0,0.75,0],[1,0.25,0],[1,0.5,0],[1,0.75,0]];outlineConnect=0;fontColor=#232F3E;fillColor=#8C4FFF;strokeColor=#ffffff;dashed=0;verticalLabelPosition=bottom;verticalAlign=top;align=center;html=1;fontSize=12;fontStyle=0;aspect=fixed;shape=mxgraph.aws4.resourceIcon;resIcon=mxgraph.aws4.managed_streaming_for_kafka;" vertex="1" parent="1">
          <mxGeometry x="1040" y="410" width="78" height="78" as="geometry" />
        </mxCell>
        <mxCell id="QvjmknEQWRXx9Tbn0goD-59" style="edgeStyle=orthogonalEdgeStyle;rounded=0;orthogonalLoop=1;jettySize=auto;html=1;entryX=0.5;entryY=1;entryDx=0;entryDy=0;entryPerimeter=0;" edge="1" parent="1" source="QvjmknEQWRXx9Tbn0goD-41" target="QvjmknEQWRXx9Tbn0goD-58">
          <mxGeometry relative="1" as="geometry">
            <Array as="points">
              <mxPoint x="510" y="690" />
              <mxPoint x="1079" y="690" />
            </Array>
          </mxGeometry>
        </mxCell>
        <mxCell id="QvjmknEQWRXx9Tbn0goD-60" style="edgeStyle=orthogonalEdgeStyle;rounded=0;orthogonalLoop=1;jettySize=auto;html=1;entryX=1;entryY=0.5;entryDx=0;entryDy=0;entryPerimeter=0;" edge="1" parent="1" source="QvjmknEQWRXx9Tbn0goD-58" target="QvjmknEQWRXx9Tbn0goD-37">
          <mxGeometry relative="1" as="geometry">
            <Array as="points">
              <mxPoint x="1080" y="-89" />
            </Array>
          </mxGeometry>
        </mxCell>
        <mxCell id="QvjmknEQWRXx9Tbn0goD-64" style="edgeStyle=orthogonalEdgeStyle;rounded=0;orthogonalLoop=1;jettySize=auto;html=1;" edge="1" parent="1" source="QvjmknEQWRXx9Tbn0goD-61" target="QvjmknEQWRXx9Tbn0goD-63">
          <mxGeometry relative="1" as="geometry" />
        </mxCell>
        <mxCell id="QvjmknEQWRXx9Tbn0goD-61" value="make-payment-dlq" style="sketch=0;outlineConnect=0;fontColor=#232F3E;gradientColor=none;strokeColor=#232F3E;fillColor=#ffffff;dashed=0;verticalLabelPosition=bottom;verticalAlign=top;align=center;html=1;fontSize=12;fontStyle=0;aspect=fixed;shape=mxgraph.aws4.resourceIcon;resIcon=mxgraph.aws4.queue;" vertex="1" parent="1">
          <mxGeometry x="640" y="540" width="60" height="60" as="geometry" />
        </mxCell>
        <mxCell id="QvjmknEQWRXx9Tbn0goD-65" style="edgeStyle=orthogonalEdgeStyle;rounded=0;orthogonalLoop=1;jettySize=auto;html=1;" edge="1" parent="1" source="QvjmknEQWRXx9Tbn0goD-63" target="QvjmknEQWRXx9Tbn0goD-50">
          <mxGeometry relative="1" as="geometry">
            <Array as="points">
              <mxPoint x="820" y="490" />
            </Array>
          </mxGeometry>
        </mxCell>
        <mxCell id="QvjmknEQWRXx9Tbn0goD-67" style="edgeStyle=orthogonalEdgeStyle;rounded=0;orthogonalLoop=1;jettySize=auto;html=1;" edge="1" parent="1" source="QvjmknEQWRXx9Tbn0goD-63" target="QvjmknEQWRXx9Tbn0goD-66">
          <mxGeometry relative="1" as="geometry" />
        </mxCell>
        <mxCell id="QvjmknEQWRXx9Tbn0goD-63" value="backoff" style="rounded=0;whiteSpace=wrap;html=1;fillColor=#B3FF66;" vertex="1" parent="1">
          <mxGeometry x="760" y="540" width="120" height="60" as="geometry" />
        </mxCell>
        <mxCell id="QvjmknEQWRXx9Tbn0goD-66" value="make-payment-error" style="sketch=0;outlineConnect=0;fontColor=#232F3E;gradientColor=none;strokeColor=#232F3E;fillColor=#ffffff;dashed=0;verticalLabelPosition=bottom;verticalAlign=top;align=center;html=1;fontSize=12;fontStyle=0;aspect=fixed;shape=mxgraph.aws4.resourceIcon;resIcon=mxgraph.aws4.queue;" vertex="1" parent="1">
          <mxGeometry x="950" y="540" width="60" height="60" as="geometry" />
        </mxCell>
        <mxCell id="QvjmknEQWRXx9Tbn0goD-71" style="edgeStyle=orthogonalEdgeStyle;rounded=0;orthogonalLoop=1;jettySize=auto;html=1;entryX=0.5;entryY=1;entryDx=0;entryDy=0;" edge="1" parent="1" source="QvjmknEQWRXx9Tbn0goD-68" target="QvjmknEQWRXx9Tbn0goD-70">
          <mxGeometry relative="1" as="geometry" />
        </mxCell>
        <mxCell id="QvjmknEQWRXx9Tbn0goD-68" value="make-reservation-dlq" style="sketch=0;outlineConnect=0;fontColor=#232F3E;gradientColor=none;strokeColor=#232F3E;fillColor=#ffffff;dashed=0;verticalLabelPosition=bottom;verticalAlign=top;align=center;html=1;fontSize=12;fontStyle=0;aspect=fixed;shape=mxgraph.aws4.resourceIcon;resIcon=mxgraph.aws4.queue;" vertex="1" parent="1">
          <mxGeometry x="590" y="270" width="60" height="60" as="geometry" />
        </mxCell>
        <mxCell id="QvjmknEQWRXx9Tbn0goD-72" style="edgeStyle=orthogonalEdgeStyle;rounded=0;orthogonalLoop=1;jettySize=auto;html=1;" edge="1" parent="1" source="QvjmknEQWRXx9Tbn0goD-70" target="QvjmknEQWRXx9Tbn0goD-42">
          <mxGeometry relative="1" as="geometry">
            <Array as="points">
              <mxPoint x="510" y="220" />
            </Array>
          </mxGeometry>
        </mxCell>
        <mxCell id="QvjmknEQWRXx9Tbn0goD-74" style="edgeStyle=orthogonalEdgeStyle;rounded=0;orthogonalLoop=1;jettySize=auto;html=1;" edge="1" parent="1" source="QvjmknEQWRXx9Tbn0goD-70" target="QvjmknEQWRXx9Tbn0goD-73">
          <mxGeometry relative="1" as="geometry" />
        </mxCell>
        <mxCell id="QvjmknEQWRXx9Tbn0goD-70" value="backoff" style="rounded=0;whiteSpace=wrap;html=1;fillColor=#B3FF66;" vertex="1" parent="1">
          <mxGeometry x="560" y="190" width="120" height="60" as="geometry" />
        </mxCell>
        <mxCell id="QvjmknEQWRXx9Tbn0goD-73" value="make-reservation0-error" style="sketch=0;outlineConnect=0;fontColor=#232F3E;gradientColor=none;strokeColor=#232F3E;fillColor=#ffffff;dashed=0;verticalLabelPosition=bottom;verticalAlign=top;align=center;html=1;fontSize=12;fontStyle=0;aspect=fixed;shape=mxgraph.aws4.resourceIcon;resIcon=mxgraph.aws4.queue;" vertex="1" parent="1">
          <mxGeometry x="780" y="200" width="60" height="60" as="geometry" />
        </mxCell>
      </root>
    </mxGraphModel>
  </diagram>
</mxfile>
